# xmcd
#
# Track frame offsets:
# 150
# 14485
# 35812
# 63930
# 81895
# 97891
# 113145
# 127805
# 147475
# 159733
# 177739
#
# Disc length: 2605 seconds
#
#
# Revision: 0
# Processed by: cddbd v1.5.2PL0 Copyright (c) Steve Scherf et al.
# Submitted via: Nero 7, 11, 10, 0 
#
DISCID=960a2b0b
DTITLE=Paul deLay Band - Burnin'
DYEAR=1988
DGENRE=Blues
TTITLE0=I'm Gonna Stop
TTITLE1=You Can Make It If You Try
TTITLE2=Tighten Up
TTITLE3=Life Is Too Short
TTITLE4=Lost In A Dream
TTITLE5=Blues In The Night
TTITLE6=3-Handed Woman
TTITLE7=I Take What I Want
TTITLE8=I Can't Stop
TTITLE9=Buzz Me
TTITLE10=Paul Train
EXTD=
EXTT0=I'm Gonna Stop
EXTT1=You Can Make It If You Try
EXTT2=Tighten Up
EXTT3=Life Is Too Short
EXTT4=Lost In A Dream
EXTT5=Blues In The Night
EXTT6=3-Handed Woman
EXTT7=I Take What I Want
EXTT8=I Can't Stop
EXTT9=Buzz Me
EXTT10=Paul Train
PLAYORDER=
